<?xml version="1.0" encoding="UTF-8"?>
<svg id="_图层_2" data-name="图层 2" xmlns="http://www.w3.org/2000/svg" viewBox="0 0 50.96 57.64">
  <defs>
    <style>
      .cls-1 {
        fill: #ff0050;
      }

      .cls-2 {
        fill: #ff004f;
      }

      .cls-3 {
        fill: #00f2ea;
      }

      .cls-4 {
        fill: #00faf0;
      }
    </style>
  </defs>
  <g id="_图层_1-2" data-name="图层 1">
    <g id="logo_douyin">
      <path id="logo_douyin_7" class="cls-3" d="M19.84,22.69v-2.23c-.77-.09-1.55-.15-2.36-.15-9.63,0-17.48,7.81-17.48,17.47,0,5.89,2.95,11.14,7.45,14.31-2.92-3.13-4.69-7.29-4.69-11.89.03-9.53,7.64-17.29,17.08-17.51h0Z"/>
      <path id="logo_douyin_6" class="cls-3" d="M20.24,48.11c4.29,0,7.8-3.41,7.95-7.66V2.42h6.96c-.15-.77-.22-1.58-.22-2.42h-9.5v38.02c-.15,4.25-3.66,7.66-7.95,7.66-1.34,0-2.61-.35-3.7-.93,1.46,2.05,3.82,3.35,6.46,3.35h0Z"/>
      <path id="logo_douyin_5" class="cls-4" d="M48.16,15.34v-2.11c-2.64,0-5.12-.77-7.21-2.14,1.86,2.11,4.38,3.63,7.21,4.25Z"/>
      <path id="logo_douyin_4" class="cls-1" d="M40.99,11.08c-2.02-2.32-3.26-5.34-3.26-8.66h-2.54c.68,3.6,2.83,6.7,5.81,8.66h0Z"/>
      <path id="logo_douyin_3" class="cls-2" d="M17.48,29.77c-4.41,0-7.98,3.57-7.98,7.97,0,3.07,1.74,5.71,4.29,7.05-.93-1.31-1.52-2.91-1.52-4.66,0-4.4,3.57-7.97,7.98-7.97.81,0,1.62.13,2.36.37v-9.68c-.77-.09-1.55-.15-2.36-.15h-.4v7.45c-.75-.24-1.52-.37-2.36-.37h0Z"/>
      <path id="logo_douyin_2" class="cls-2" d="M48.16,15.34v7.39c-4.93,0-9.47-1.58-13.2-4.25v19.28c0,9.63-7.82,17.47-17.48,17.47-3.73,0-7.17-1.18-10-3.17,3.2,3.41,7.73,5.58,12.79,5.58,9.63,0,17.48-7.82,17.48-17.47v-19.28c3.73,2.67,8.29,4.25,13.2,4.25v-9.5c-.96-.03-1.89-.13-2.8-.31h0Z"/>
      <path id="logo_douyin_1" d="M34.97,37.74v-19.28c3.73,2.67,8.29,4.25,13.2,4.25v-7.39c-2.85-.62-5.34-2.14-7.21-4.25-2.98-1.93-5.12-5.03-5.78-8.66h-6.96v38.02c-.15,4.25-3.66,7.66-7.95,7.66-2.67,0-5.03-1.31-6.46-3.32-2.54-1.33-4.29-4-4.29-7.05,0-4.4,3.57-7.97,7.98-7.97.81,0,1.62.13,2.36.37v-7.45c-9.44.22-17.05,7.97-17.05,17.44,0,4.59,1.77,8.78,4.69,11.89,2.83,1.99,6.31,3.17,10,3.17,9.59.03,17.45-7.82,17.45-17.44h.02Z"/>
    </g>
  </g>
</svg>
